<?xml version="1.0" encoding="UTF-8"?>
<svg id="Layer_1" data-name="Layer 1" xmlns="http://www.w3.org/2000/svg" viewBox="0 0 512 512">
  <defs>
    <style>
      .cls-1 {
        fill: #2e3440;
      }

      .cls-2 {
        fill: #4c566a;
      }

      .cls-3 {
        fill: #d8dee9;
      }
    </style>
  </defs>
  <g id="Layer_6" data-name="Layer 6">
    <path class="cls-3" d="M196.48,249.89l-3.74-1.57-18.56-21.89s-8.29-19.97,16.99-4.75l12.32,5.51,2.7,17.8-9.71,4.9Z"/>
  </g>
  <path class="cls-1" d="M194,249c-4.06,1.34-1.95,3.62-3.66,4.04-11.27,2.8-7.45-5.03-8.37-11.51-.23-1.6-1.93-2.54-2.01-4.02-.03-.63,1.86.02,2.13-1.93s.25-16.7-.23-17.43c-.77-1.2-7.04-3.51-8.41.81-2.42,7.66,24.28,32.8,23.66,33.44-2.03,2.11-25.94-26.73-26.09-28-.95-8.01,3.64-11.13,10.97-8.41l-.14-38.85c-33.27-7.62-49.75-43.83-30.26-73.05,8.13-12.19,23.32-21.06,38.04-21.96,3.96-.24,17.04,2.26,18.39,1.4,2.02-1.29-2.85-8.8-2.93-12.13-.06-2.31,1.43-7.19,2.41-9.4,2.11-4.78,12.17-12.44,17.44-13.56,3.42-.73,8.91-.84,12.32-.21,2.48.46,6.98,4.28,7.72,3.76.14-.1.33-2.03,1.44-3.04,6.83-6.24,22.05-11.48,31.21-12.82,2.44-.36,6.23.39,7.82-.06,1.2-.34-.12-2.78,1.09-3.14,8.4-2.49,6.83,4.16,7.57,4.95.28.3,5.17.93,7.81,2.69,4.54,3.01,9.07,9.8,13.57,13.43s17.45,7.92,14.5,14.99c11.35-3.5,22.83,2.35,27.39,13.11s-3.66,16.67-3.17,22.24c.13,1.47,2.87,6.29,3.5,9.44,3.77,19.01,4.57,38.47,7.43,57.57.66,4.4,6.83,28.5,5.82,29.62-.25.28-2.23-.07-2.97.03.41-.45-.73-1.58-1-.5-.07.3.78.74,1,.5l9,44-9-.99c.8,4.14,2.63,8.16,2.08,12.55-.1.8-2.42,3.31-2.95,7.07-4.93,34.82-10.69,69.62-12.12,104.88-.42,10.42.03,16.72-2.28,27.73-3.51,16.72-10.18,32.51-15.25,48.75-1.07,1.29-18.03,6.02-19.98,6.02h-18.5l29.01,22.49c1.84,1.72,16.99,16.54,14.98,18.51-5.9-2.98-11.54-5.74-18-7.49-66.49-18.03-162.9,64.14-206.52-22.48-25.44-50.53,6.76-98.2,51.48-121.56,4.02-2.1,24.4-10.06,25.77-11.73.72-.88,7.55-18.74,8.3-21.2,4.53-14.92,5-32.32,5.01-47.86-.19-.79-12.24-6.49-14.04-8.21-1-.96-.69-1.95-1-2.46.46-.15,1.86.18,2,0,.32-.43-1.25-1.65-.8-2.74.14-.33,3.33-4.39,4.21-5.83.4-.65,1.53-.37,1.58-.44.84-1.3-5.86-3.46-4.98-5.97,5.12,2.51,4.16-1.05,5.99-3,3.52,2.29.72,1.4.38,3.67-.1.63-.4,4.5-.35,4.73.19.97,1.84.45,1.96.61,1.79,2.48-2.2,1.66-2.75,2.15-.71.64-.37,2.71-.92,3.6-1.03,1.68-2.84.78-2.22,2.61,1.49,4.41,6.99,6.84,10.9,8.62v-25.5c0-1.65-4.39-3.27-7-.5-.48-.31-2.04.59-2.01-.51l2.01-3.48-9.99-4.01c.92,8.17-2.18,18.92,1.99,26ZM333,353c-8.12-5.9-22.23,2.14-27.43,9.07-12.65,16.88-12.33,43.5-7.12,62.99,1.46,5.45,4.76,5.65,5.37,7.63,1.17,3.83-2.13,6.2,4.18,5.32l-2.78,6.55c4.86,6.55,11.52,2.75,17.53,1.69,4.39-.77,8.77-1.2,13.13-2.37,2.53-12.47,8.67-24.45,11.85-36.65,1.13-4.31,6.67-30.29,6.26-32.64-1.38-7.99-.52-4.83.01-12.08.44-5.96-.43-12.09-.05-18.05,1.75-27,7.24-53.97,10.12-80.88.41-3.8,3.9-9.6,3.94-10.17.11-1.82-3.96-12.47-3.01-13.41s9.02,3.82,9.01,1.48c0-1.38-3.19-9.33-3.75-12.25-1.72-8.83-2.25-18.7-4.54-27.46-1.15-4.41-5.8-10.7,2.78-2.78,1.07-2.18-1.58-5.22-2.23-7.77-6.68-26.19-4.87-56.95-12.77-83.23-.4-1.31-2.1-2.65-2.16-3.5-.05-.69,4.25-10.88,4.6-13.05,1.22-7.63-4.87-17.31-11.93-19.95-4.16-1.55-11.78-1.22-16.04-.04-3.93,1.09-5.35,4.38-8.04,5.96-11.15,6.54-52.05-.06-64.28-5.57-2.97-1.34-10.19-5.09-10.67-8.42-.33-2.3,1.23-4.76.55-6.42-1.73-4.22-6.1-4.09-8.77-5.1-.97-.37-.43-1.75-2.19-2-6.2-.88-17.2,4.03-21.63,8.52-4.33,4.39-5.83,10.82-4.7,16.82s4.29,4.29,4.76,4.74c1.81,1.74-4.33,4.65-3,5.98.24.24,4.29,1.01,6.31,2.21,5.25,3.11,8.46,6.47,12.92,10.14,3.47,2.85,7.43,2.57,9.09,8.84,1.54,5.83,3.02,19.36,2.72,25.37-.23,4.59-1.17,9.24-3.04,13.44,8.74-2.83,22.51,6.17,21.73,15.36-.84,9.92-12.65,6.95-13.6,7.8-.6.54.08,3.76-2.83,4.66-1.62.5-8.04.52-9.79.17-2.16-.43-2.77-2.35-4.22-2.78-8.2-2.45-10.28-.27-16.6,1.99-2.07.74-12.58,3.7-12.76,4.45-.44,1.86,1.5,7.33,2.18,9.57,8.84,28.92,10.74,60.13,8.87,91.27-1.48,24.69-7.81,34.88-15.27,56.73-1.89,5.52-3.37,16.26-5.46,20.54-1.15,2.35-5.74,4.27-7.66,7.34-8.18,13.08-3.42,41.38-.36,56.17.19.94,1.66,4.58,2.45,4.77,16.2.91,33.84-1.32,49.86-.08,12.23.95,25.14,5.81,36.66,10.14,1.02.38,1.94,3.41,5.79,1.89-1.95-6.38,4.06-15.04,11.39-13.97,5.04.74,5.07,2.74,6.61,5.98-4.52-1.42-7.52-5.76-12.36-1.86-4.11,3.31-5.38,10.23-1.15,13.87,4.6,3.97,16.52,10.81,22.53,8.51,3.03-1.16-1.79-2.1-2.02-3.05-.73-2.93,7.34-6.4-1-5.47,2.08-8.18-.87-5.6-3.75-7.21-.9-.5-1.73-3.68-2.25-4.78,1.38.43,2.25,2.24,2.02-.5-.29-3.47-2.28-5.61-2.78-8.23-3.29-17.12-1.89-43.19,8.33-57.21,5.97-8.19,15.01-14.7,25.87-12.99,4.59.72,3.29,2.52,4.57,3.93.13.15,4.11-.13,1.99,1.99s-1.83-1.88-1.99-1.99ZM185.78,89.28c-53.23,5.95-43.3,88.22,12.61,81.61,52.14-6.16,41.95-87.71-12.61-81.61ZM235.99,107.99l-1.5-2.97.52,2.97h.98ZM221.01,167.99c6.71,2.66,11.85-1.68,18.46-2.02,4.35-.23,9.28,1.57,12.8.85,9.42-1.93,2.76-15.96-4.99-17.57-11-2.28-6.44,3.97-10.29,6.32-1.67,1.02-5.52-1.45-7.47,4.45l-8.51,7.97ZM243.99,168.01c-2.08-2.06-6.07,1.85-3.99,3.99,1.58,1.63,5.62-2.37,3.99-3.99ZM238.01,169c-1.07-1.1-7.64.3-5.01,2.99,1.07,1.1,7.64-.3,5.01-2.99ZM192,178v42.5l15.51,7.49c2.24-6.88-7.35-47.04-11.5-49.5-.87-.51-3.68-.81-4-.5ZM181,423.99c-4.01-16.32-10.46-50.92,1.16-64.34,2.04-2.36,6.09-3.87,6.65-5.35.98-2.6.55-7.87,1.29-10.71.49-1.87,4.49-10.83,3.89-11.6-21.32,10.01-44.54,20.51-59.91,38.82-49.38,58.82-7.88,143.13,70.65,127.41,36.65-7.34,87.92-27.39,124.55-16.01,2.22.69,5.33,5.18,8.72,4.77-4.25-3.78-7.77-8.76-11.99-12.5-28.1-24.9-63.21-46.43-101.46-48.54-15.12-.83-31.75,2.09-46.08,1.08-1.99-.14-13.71-1.42-10.46-5.03.45-.5,10.13,3.94,12.99,1.99Z"/>
  <path class="cls-2" d="M295,428c-1.54-3.24-1.56-5.24-6.61-5.98-7.33-1.07-13.34,7.59-11.39,13.97-3.85,1.52-4.77-1.51-5.79-1.89-11.52-4.33-24.43-9.19-36.66-10.14-16.02-1.24-33.66.98-49.86.08-.78-.19-2.25-3.83-2.45-4.77-3.06-14.79-7.82-43.09.36-56.17,1.92-3.07,6.51-4.99,7.66-7.34,2.09-4.29,3.57-15.02,5.46-20.54,7.47-21.84,13.8-32.04,15.27-56.73,1.86-31.14-.03-62.35-8.87-91.27-.68-2.24-2.62-7.71-2.18-9.57.18-.76,10.69-3.71,12.76-4.45,6.32-2.27,8.4-4.45,16.6-1.99,1.45.43,2.06,2.35,4.22,2.78,1.75.35,8.17.32,9.79-.17,2.91-.9,2.24-4.12,2.83-4.66.94-.85,12.76,2.12,13.6-7.8.78-9.19-12.99-18.19-21.73-15.36,1.87-4.2,2.81-8.85,3.04-13.44.31-6.01-1.17-19.54-2.72-25.37-1.66-6.27-5.62-5.99-9.09-8.84-4.46-3.66-7.67-7.03-12.92-10.14-2.02-1.2-6.07-1.97-6.31-2.21-1.33-1.34,4.81-4.25,3-5.98-.47-.45-3.64,1.2-4.76-4.74s.37-12.44,4.7-16.82c4.43-4.49,15.43-9.4,21.63-8.52,1.76.25,1.21,1.63,2.19,2,2.67,1.01,7.04.88,8.77,5.1.68,1.65-.88,4.12-.55,6.42.48,3.33,7.7,7.08,10.67,8.42,12.24,5.51,53.13,12.11,64.28,5.57,2.69-1.58,4.11-4.86,8.04-5.96,4.26-1.19,11.88-1.52,16.04.04,7.07,2.64,13.15,12.32,11.93,19.95-.35,2.17-4.64,12.36-4.6,13.05.06.85,1.76,2.19,2.16,3.5,7.9,26.28,6.09,57.04,12.77,83.23.65,2.55,3.3,5.58,2.23,7.77-8.59-7.91-3.93-1.62-2.78,2.78,2.28,8.76,2.81,18.63,4.54,27.46.57,2.92,3.75,10.87,3.75,12.25,0,2.34-8.1-2.37-9.01-1.48-.95.94,3.13,11.59,3.01,13.41-.04.57-3.53,6.36-3.94,10.17-2.89,26.91-8.37,53.88-10.12,80.88-.39,5.96.49,12.09.05,18.05-.54,7.25-1.39,4.08-.01,12.08.4,2.35-5.14,28.33-6.26,32.64-3.18,12.2-9.32,24.18-11.85,36.65-4.36,1.17-8.74,1.6-13.13,2.37-6.01,1.06-12.67,4.86-17.53-1.69l2.78-6.55c-6.31.87-3-1.49-4.18-5.32-.6-1.97-3.91-2.17-5.37-7.63-5.21-19.48-5.53-46.1,7.12-62.99,5.2-6.93,19.31-14.97,27.43-9.07.16.12-.14,4.13,1.99,1.99s-1.86-1.85-1.99-1.99c-1.28-1.42.02-3.21-4.57-3.93-10.86-1.71-19.9,4.8-25.87,12.99-10.22,14.02-11.62,40.09-8.33,57.21.5,2.62,2.49,4.77,2.78,8.23.23,2.74-.64.94-2.02.5ZM239.99,60.01c-1.78-1.73-16.16,12.16-19.26,11.99l-6.73,6.99c7.13-2.89,12.59-8.62,18.74-12.96,2.31-1.63,7.29-2.04,7.25-6.02ZM341,94c.42.57,1.31,8.31,4.98,3.2,5.13-7.14,3.45-16.22-6.41-17.11-2.9-.26-11.72,3.91-8.96,5.97,1.03.77,2.88.61,4.44,2.42.73.85.57,2.56,1.28,3.24.19.18,4.5,2.05,4.66,2.28ZM254,126c1.83,3.07,3.53,5.29,7.57,5.93,14.69,2.31,28.14-4.49,24.4-21.22-.17-.78-1.74-.97-2.31-1.93-2.49-4.17-6.45-8.73-11.74-10.21-5.99-1.67-12.06-.86-16.96,2.89-.8.61-6.83,6.76-6.94,7.25-1.48,6.7-.11,13.91,5.97,17.29ZM348,277c-3.74.44-.21-2.3-2-3.52-4.85,1.87,1.16-8.99-4.96-3.89-.76.64-3.24,4.44-3.52,4.42-5.23-.52.34-10.26-5.81-5.98-1.02.71-.22,2.32-1.7,1.97-3.7-7.26.49-15.56.97-23.51.12-2.01,1.28-9.51-1.98-8.49.51,15.6-5.81,31.46-6.99,46.52-.43,5.48-1.05,17.4,5.45,19.55,1.3.43,10.33,2.64,11.2,2.67,3.34.13,5.93-3.95,6.84-6.74,1.25-3.84,4.75-19.67,5.24-23.77.71-5.93-1.93-3.8-2.75.76Z"/>
  <path class="cls-2" d="M181,423.99c-2.86,1.95-12.55-2.48-12.99-1.99-3.25,3.61,8.47,4.89,10.46,5.03,14.33,1.01,30.96-1.91,46.08-1.08,38.25,2.1,73.36,23.64,101.46,48.54,4.22,3.74,7.74,8.72,11.99,12.5-3.39.41-6.5-4.08-8.72-4.77-36.63-11.39-87.9,8.67-124.55,16.01-78.52,15.73-120.02-68.59-70.65-127.41,15.37-18.31,38.59-28.81,59.91-38.82.6.77-3.4,9.72-3.89,11.6-.74,2.84-.31,8.12-1.29,10.71-.56,1.48-4.61,2.99-6.65,5.35-11.61,13.42-5.17,48.02-1.16,64.34Z"/>
  <path class="cls-3" d="M185.78,89.28c54.56-6.1,64.75,75.44,12.61,81.61-55.92,6.61-65.84-75.65-12.61-81.61ZM188.73,105.28c-2.61-2.66-5.46-2.28-8.22-.27-9.38,6.8-7.94,30.42-2.53,39.52,3.39,5.69,9.33,4.52,12.48-.57,2.54-4.1,4.77-18.45,4.48-23.3-.15-2.55-4.6-13.72-6.21-15.37Z"/>
  <path class="cls-3" d="M221.01,167.99l8.51-7.97c1.95-5.9,5.79-3.43,7.47-4.45,3.85-2.36-.71-8.61,10.29-6.32,7.75,1.61,14.41,15.64,4.99,17.57-3.52.72-8.45-1.07-12.8-.85-6.61.35-11.75,4.69-18.46,2.02Z"/>
  <path class="cls-3" d="M295,428c.52,1.1,1.35,4.28,2.25,4.78,2.88,1.61,5.83-.97,3.75,7.21,8.34-.92.27,2.55,1,5.47.24.95,5.05,1.89,2.02,3.05-6.01,2.31-17.93-4.54-22.53-8.51-4.23-3.65-2.95-10.57,1.15-13.87,4.84-3.89,7.84.44,12.36,1.86Z"/>
  <path class="cls-2" d="M202,231c2.61-2.77,7-1.15,7,.5v25.5c-3.9-1.78-9.41-4.21-10.9-8.62-.62-1.83,1.2-.93,2.22-2.61.54-.89.21-2.96.92-3.6.55-.49,4.53.33,2.75-2.15-.11-.16-1.77.36-1.96-.61-.05-.23.26-4.1.35-4.73.34-2.26,3.14-1.38-.38-3.67Z"/>
  <path class="cls-3" d="M243.99,168.01c1.63,1.62-2.41,5.62-3.99,3.99-2.08-2.14,1.91-6.05,3.99-3.99Z"/>
  <path class="cls-3" d="M238.01,169c2.63,2.69-3.94,4.09-5.01,2.99-2.63-2.69,3.94-4.09,5.01-2.99Z"/>
  <polygon class="cls-3" points="235.99 107.99 235.01 107.99 234.49 105.02 235.99 107.99"/>
  <path class="cls-2" d="M368,201c-.22.24-1.07-.2-1-.5.27-1.08,1.41.05,1,.5Z"/>
  <path class="cls-1" d="M348,277c.82-4.55,3.46-6.68,2.75-.76-.49,4.1-3.99,19.93-5.24,23.77-.91,2.79-3.5,6.86-6.84,6.74-.87-.03-9.9-2.24-11.2-2.67-6.5-2.16-5.88-14.07-5.45-19.55,1.17-15.06,7.49-30.92,6.99-46.52,3.26-1.02,2.1,6.48,1.98,8.49-.48,7.95-4.67,16.24-.97,23.51,1.48.35.68-1.26,1.7-1.97,6.15-4.28.57,5.46,5.81,5.98.28.03,2.76-3.78,3.52-4.42,6.12-5.1.11,5.76,4.96,3.89,1.79,1.22-1.74,3.97,2,3.52l-3.99,4-.02-4-2.98,1,.5-5.98c-4.38,7.53-9.86,8.54-8.52-2.02l-4.99,2.01-.99-3c-.56,9.41-8.82,28.84,3.17,33.32,16.44,6.14,12.43-4.98,15.06-15.58.95-3.83,1.96-5.29,2.76-9.74Z"/>
  <path class="cls-1" d="M254,126c-6.09-3.38-7.45-10.59-5.97-17.29.11-.49,6.14-6.64,6.94-7.25,4.9-3.75,10.97-4.56,16.96-2.89,5.29,1.48,9.25,6.04,11.74,10.21.57.96,2.14,1.15,2.31,1.93,3.74,16.73-9.71,23.53-24.4,21.22-4.04-.64-5.75-2.86-7.57-5.93,5.64,3.13,12.33,5.87,18.82,4.31,17.92-4.31,13.6-28.98-5.47-30.25-17.24-1.14-21.24,12.64-13.35,25.93Z"/>
  <path class="cls-1" d="M341,94c-.16-.22-4.48-2.1-4.66-2.28-.71-.68-.55-2.39-1.28-3.24-1.56-1.81-3.41-1.65-4.44-2.42-2.76-2.06,6.06-6.23,8.96-5.97,9.86.89,11.54,9.96,6.41,17.11-3.67,5.11-4.56-2.63-4.98-3.2.82.86,2.2,1.24,2.02,3,9.4-8.98,1.08-18.48-10.02-12.99-.77,1.04,6.67,8.6,8,9.99Z"/>
  <path class="cls-1" d="M239.99,60.01c.04,3.99-4.94,4.39-7.25,6.02-6.15,4.34-11.61,10.08-18.74,12.96l6.73-6.99c3.11.17,17.48-13.72,19.26-11.99Z"/>
  <path class="cls-1" d="M188.73,105.28c1.62,1.65,6.06,12.82,6.21,15.37.29,4.85-1.94,19.2-4.48,23.3-3.15,5.09-9.09,6.27-12.48.57-5.41-9.1-6.85-32.72,2.53-39.52,2.77-2,5.62-2.39,8.22.27ZM182.97,115.01c-3.79-3.07-4.23,7.61-1.45,8.98,3.03,1.49,2.36-8.24,1.45-8.98Z"/>
  <path class="cls-3" d="M348,277c-.8,4.44-1.81,5.91-2.76,9.74-2.63,10.6,1.38,21.73-15.06,15.58-11.99-4.48-3.73-23.9-3.17-33.32l.99,3,4.99-2.01c-1.34,10.56,4.14,9.55,8.52,2.02l-.5,5.98,2.98-1,.02,4,3.99-4Z"/>
  <path class="cls-3" d="M254,126c-7.9-13.29-3.89-27.08,13.35-25.93,19.07,1.27,23.39,25.94,5.47,30.25-6.48,1.56-13.17-1.18-18.82-4.31ZM260.01,108c-1.39.92-2.61,14.79,3.45,12.98,3.54-1.05,1.66-16.37-3.45-12.98Z"/>
  <path class="cls-3" d="M341,94c-1.32-1.39-8.77-8.94-8-9.99,11.1-5.5,19.42,4.01,10.02,12.99.18-1.76-1.2-2.14-2.02-3Z"/>
  <path class="cls-3" d="M182.97,115.01c.91.74,1.58,10.47-1.45,8.98-2.78-1.37-2.34-12.05,1.45-8.98Z"/>
  <path class="cls-1" d="M260.01,108c5.11-3.38,6.99,11.93,3.45,12.98-6.06,1.81-4.84-12.06-3.45-12.98Z"/>
</svg>